<?xml version="1.0" encoding="utf-8"?>
<!-- Generator: Adobe Illustrator 14.0.0, SVG Export Plug-In . SVG Version: 6.00 Build 43363)  -->
<!DOCTYPE svg PUBLIC "-//W3C//DTD SVG 1.1//EN" "http://www.w3.org/Graphics/SVG/1.1/DTD/svg11.dtd">
<svg version="1.1" id="Layer_1" xmlns="http://www.w3.org/2000/svg" xmlns:xlink="http://www.w3.org/1999/xlink" x="0px" y="0px"
	 width="183px" height="34px" viewBox="0 0 183 34" enable-background="new 0 0 183 34" xml:space="preserve">
<g>
	<g>
		<g>
			<path d="M27.177,25.776l-3.464-10.753h2.374l1.603,5.161l0.847,3.374h0.046l0.816-3.374l1.603-5.161h2.297L29.8,25.776h-2.617
				H27.177z"/>
			<path d="M36.491,25.959c-0.595,0-1.124-0.099-1.594-0.293c-0.465-0.197-0.863-0.479-1.188-0.848
				c-0.323-0.37-0.572-0.816-0.748-1.338c-0.175-0.524-0.262-1.111-0.262-1.758c0-0.644,0.087-1.23,0.262-1.755
				c0.176-0.521,0.425-0.968,0.748-1.332c0.324-0.366,0.717-0.643,1.188-0.837c0.465-0.196,0.999-0.295,1.594-0.295
				c0.596,0,1.126,0.099,1.594,0.295c0.466,0.194,0.863,0.476,1.188,0.837c0.323,0.366,0.571,0.811,0.747,1.332
				c0.175,0.524,0.263,1.111,0.263,1.755c0,0.646-0.088,1.233-0.263,1.758c-0.176,0.521-0.424,0.968-0.747,1.338
				c-0.325,0.368-0.718,0.65-1.188,0.848C37.617,25.86,37.086,25.959,36.491,25.959z M36.491,24.157
				c0.451,0,0.802-0.139,1.049-0.415c0.249-0.28,0.37-0.671,0.37-1.188v-1.646c0-0.517-0.121-0.907-0.37-1.188
				c-0.247-0.277-0.595-0.415-1.049-0.415s-0.802,0.138-1.049,0.415c-0.247,0.28-0.369,0.671-0.369,1.188v1.646
				c0,0.518,0.122,0.908,0.369,1.188C35.689,24.019,36.037,24.157,36.491,24.157z"/>
			<path d="M45.278,14.374h2.28v6.732h0.093l0.999-1.497l1.617-1.927h2.525l-2.697,3.099l3.002,4.99h-2.712l-1.815-3.418
				l-1.019,1.14v2.283h-2.282V14.374H45.278z"/>
			<path d="M56.879,25.959c-0.614,0-1.165-0.099-1.649-0.302c-0.479-0.202-0.889-0.482-1.225-0.847
				c-0.335-0.366-0.587-0.809-0.755-1.33c-0.168-0.524-0.256-1.111-0.256-1.758c0-0.644,0.085-1.213,0.248-1.732
				c0.164-0.52,0.407-0.959,0.732-1.33c0.324-0.37,0.722-0.656,1.195-0.855c0.472-0.202,1.011-0.301,1.617-0.301
				c0.667,0,1.239,0.115,1.716,0.34c0.478,0.226,0.867,0.53,1.172,0.907c0.301,0.382,0.521,0.822,0.664,1.316
				c0.14,0.497,0.21,1.019,0.21,1.565v0.68h-5.192v0.122c0,0.528,0.144,0.948,0.431,1.257c0.286,0.311,0.74,0.466,1.354,0.466
				c0.474,0,0.857-0.096,1.156-0.282c0.298-0.186,0.575-0.415,0.831-0.677l1.142,1.418c-0.358,0.422-0.827,0.751-1.408,0.986
				c-0.581,0.237-1.24,0.356-1.98,0.356H56.879z M56.833,19.178c-0.461,0-0.824,0.153-1.086,0.456
				c-0.264,0.301-0.393,0.704-0.393,1.208v0.122h2.834v-0.138c0-0.49-0.111-0.888-0.332-1.192c-0.223-0.303-0.561-0.456-1.027-0.456
				H56.833z"/>
		</g>
		<g>
			<path d="M65.856,17.733c-0.127,0.022-0.245,0.056-0.354,0.099c-0.237,0.1-0.439,0.229-0.607,0.393
				c-0.167,0.165-0.305,0.35-0.409,0.561c-0.102,0.21-0.175,0.43-0.212,0.657h-0.076v-1.755h-2.282v8.089h2.282v-4.73
				c0-0.475,0.16-0.8,0.482-0.97c0.325-0.176,0.822-0.264,1.488-0.264h0.165l-0.47-2.079H65.856z"/>
			<path d="M83.083,25.959c-0.614,0-1.163-0.099-1.647-0.302c-0.48-0.202-0.888-0.482-1.224-0.847
				c-0.337-0.366-0.588-0.809-0.755-1.33c-0.17-0.524-0.258-1.111-0.258-1.758c0-0.644,0.085-1.213,0.248-1.732
				c0.165-0.52,0.409-0.959,0.734-1.33c0.323-0.37,0.72-0.656,1.193-0.855c0.474-0.202,1.01-0.301,1.617-0.301
				c0.667,0,1.24,0.115,1.717,0.34c0.477,0.226,0.866,0.53,1.172,0.907c0.301,0.382,0.522,0.822,0.663,1.316
				c0.142,0.497,0.21,1.019,0.21,1.565v0.68h-5.192v0.122c0,0.528,0.145,0.948,0.431,1.257c0.287,0.311,0.74,0.466,1.355,0.466
				c0.472,0,0.858-0.096,1.155-0.282c0.298-0.186,0.576-0.415,0.832-0.677l1.14,1.418c-0.357,0.422-0.827,0.751-1.406,0.986
				c-0.58,0.237-1.239,0.356-1.98,0.356H83.083z M83.039,19.178c-0.462,0-0.823,0.153-1.088,0.456
				c-0.263,0.301-0.393,0.704-0.393,1.208v0.122h2.836v-0.138c0-0.49-0.111-0.888-0.333-1.192c-0.221-0.303-0.561-0.456-1.027-0.456
				H83.039z"/>
			<path d="M90.864,25.959c-0.782,0-1.438-0.126-1.974-0.379c-0.533-0.25-1.01-0.605-1.431-1.072l1.34-1.353
				c0.285,0.315,0.607,0.568,0.954,0.753c0.347,0.188,0.744,0.28,1.187,0.28c0.443,0,0.762-0.069,0.938-0.205
				c0.175-0.139,0.263-0.325,0.263-0.563c0-0.382-0.27-0.607-0.816-0.68l-0.877-0.105c-1.817-0.227-2.729-1.058-2.729-2.496
				c0-0.389,0.073-0.747,0.223-1.072c0.146-0.323,0.358-0.599,0.632-0.831c0.271-0.232,0.604-0.411,0.984-0.538
				c0.387-0.128,0.821-0.191,1.302-0.191c0.42,0,0.794,0.026,1.118,0.086c0.323,0.057,0.61,0.135,0.862,0.249
				c0.25,0.104,0.48,0.239,0.693,0.399c0.211,0.159,0.42,0.333,0.623,0.53l-1.309,1.339c-0.256-0.255-0.547-0.458-0.87-0.607
				c-0.324-0.149-0.657-0.226-0.992-0.226c-0.391,0-0.668,0.061-0.832,0.183c-0.164,0.125-0.248,0.287-0.248,0.493
				c0,0.207,0.056,0.383,0.176,0.501c0.117,0.117,0.34,0.201,0.671,0.255l0.907,0.122c1.78,0.237,2.668,1.05,2.668,2.435
				c0,0.389-0.086,0.747-0.248,1.078c-0.164,0.333-0.398,0.615-0.703,0.854c-0.305,0.242-0.668,0.427-1.094,0.562
				c-0.428,0.134-0.9,0.199-1.428,0.199H90.864z"/>
			<path d="M98.271,25.959c-0.781,0-1.438-0.126-1.973-0.379c-0.533-0.25-1.01-0.605-1.43-1.072l1.338-1.353
				c0.287,0.315,0.607,0.568,0.955,0.753c0.348,0.188,0.744,0.28,1.188,0.28c0.441,0,0.762-0.069,0.938-0.205
				c0.176-0.139,0.262-0.325,0.262-0.563c0-0.382-0.271-0.607-0.814-0.68l-0.879-0.105c-1.814-0.227-2.727-1.058-2.727-2.496
				c0-0.389,0.072-0.747,0.221-1.072c0.148-0.323,0.357-0.599,0.633-0.831c0.271-0.232,0.604-0.411,0.984-0.538
				c0.387-0.128,0.82-0.191,1.303-0.191c0.418,0,0.791,0.026,1.117,0.086c0.324,0.057,0.611,0.135,0.861,0.249
				c0.252,0.104,0.48,0.239,0.695,0.399c0.207,0.159,0.42,0.333,0.621,0.53l-1.309,1.339c-0.256-0.255-0.545-0.458-0.869-0.607
				c-0.326-0.149-0.656-0.226-0.992-0.226c-0.389,0-0.668,0.061-0.832,0.183c-0.162,0.125-0.248,0.287-0.248,0.493
				c0,0.207,0.057,0.383,0.176,0.501c0.119,0.117,0.34,0.201,0.67,0.255l0.91,0.122c1.775,0.237,2.666,1.05,2.666,2.435
				c0,0.389-0.086,0.747-0.248,1.078c-0.164,0.333-0.396,0.615-0.701,0.854c-0.305,0.242-0.668,0.427-1.096,0.562
				c-0.428,0.134-0.9,0.199-1.426,0.199H98.271z"/>
			<path d="M106.422,25.959c-0.615,0-1.164-0.099-1.648-0.302c-0.482-0.202-0.891-0.482-1.225-0.847
				c-0.336-0.366-0.59-0.809-0.756-1.33c-0.168-0.524-0.256-1.111-0.256-1.758c0-0.644,0.084-1.213,0.248-1.732
				s0.408-0.959,0.732-1.33c0.324-0.37,0.723-0.656,1.193-0.855c0.475-0.202,1.012-0.301,1.619-0.301
				c0.668,0,1.238,0.115,1.717,0.34c0.477,0.226,0.865,0.53,1.172,0.907c0.299,0.382,0.521,0.822,0.662,1.316
				c0.143,0.497,0.209,1.019,0.209,1.565v0.68h-5.191v0.122c0,0.528,0.146,0.948,0.43,1.257c0.287,0.311,0.742,0.466,1.355,0.466
				c0.473,0,0.859-0.096,1.156-0.282c0.297-0.186,0.576-0.415,0.832-0.677l1.139,1.418c-0.357,0.422-0.826,0.751-1.406,0.986
				c-0.58,0.237-1.238,0.356-1.98,0.356H106.422z M106.375,19.178c-0.461,0-0.824,0.153-1.088,0.456
				c-0.264,0.301-0.393,0.704-0.393,1.208v0.122h2.836v-0.138c0-0.49-0.111-0.888-0.334-1.192c-0.219-0.303-0.559-0.456-1.025-0.456
				H106.375z"/>
			<path d="M118.033,25.959c-0.781,0-1.438-0.126-1.971-0.379c-0.535-0.25-1.014-0.605-1.432-1.072l1.34-1.353
				c0.285,0.315,0.605,0.568,0.953,0.753c0.348,0.188,0.744,0.28,1.186,0.28c0.443,0,0.764-0.069,0.939-0.205
				c0.176-0.139,0.264-0.325,0.264-0.563c0-0.382-0.271-0.607-0.816-0.68l-0.877-0.105c-1.816-0.227-2.729-1.058-2.729-2.496
				c0-0.389,0.072-0.747,0.221-1.072c0.148-0.323,0.357-0.599,0.635-0.831c0.27-0.232,0.602-0.411,0.984-0.538
				c0.385-0.128,0.818-0.191,1.301-0.191c0.418,0,0.793,0.026,1.117,0.086c0.324,0.057,0.609,0.135,0.863,0.249
				c0.25,0.104,0.479,0.239,0.691,0.399c0.211,0.159,0.422,0.333,0.623,0.53l-1.309,1.339c-0.256-0.255-0.545-0.458-0.869-0.607
				s-0.656-0.226-0.994-0.226c-0.387,0-0.666,0.061-0.83,0.183c-0.164,0.125-0.248,0.287-0.248,0.493
				c0,0.207,0.057,0.383,0.176,0.501c0.119,0.117,0.338,0.201,0.672,0.255l0.908,0.122c1.777,0.237,2.666,1.05,2.666,2.435
				c0,0.389-0.082,0.747-0.25,1.078c-0.162,0.333-0.395,0.615-0.701,0.854c-0.305,0.242-0.666,0.427-1.094,0.562
				c-0.428,0.134-0.9,0.199-1.428,0.199H118.033z"/>
		</g>
		<rect x="41.462" y="14.374" width="2.289" height="11.402"/>
		<rect x="111.289" y="14.374" width="2.289" height="11.402"/>
		<path d="M67.678,25.776l-2.434-10.753h2.312l1.019,5.161l0.569,2.987h0.046l0.679-2.987l1.188-5.161h2.555l1.203,5.161
			l0.663,2.987h0.046l0.568-2.987l1.033-5.161h2.218l-2.495,10.753h-2.668l-1.354-5.823l-0.522-2.358h-0.047l-0.537,2.358
			l-1.354,5.823h-2.682H67.678z"/>
	</g>
	<polygon fill="#497CAB" points="14.68,25.776 20.505,25.776 20.505,15.023 13.482,8 6.914,8 -0.111,15.023 -0.111,25.776 
		5.714,25.776 8.595,22.891 8.595,16.901 4.125,21.373 4.125,16.962 8.634,12.453 11.761,12.453 16.271,16.962 16.271,21.373 
		11.799,16.901 11.799,22.891 	"/>
	<g>
		<path d="M130.846,17.104v8.668h-2.34v-8.668h-2.91v-2.08h8.162v2.08H130.846z"/>
		<path d="M137.371,25.959c-0.611,0-1.16-0.099-1.646-0.302c-0.48-0.2-0.889-0.482-1.225-0.847c-0.336-0.362-0.584-0.809-0.756-1.33
			c-0.168-0.524-0.256-1.111-0.256-1.758c0-0.644,0.08-1.213,0.248-1.732c0.166-0.52,0.408-0.959,0.734-1.33
			c0.324-0.37,0.719-0.652,1.193-0.855c0.473-0.198,1.01-0.301,1.617-0.301c0.668,0,1.24,0.115,1.717,0.34
			c0.477,0.226,0.867,0.53,1.172,0.907c0.301,0.382,0.523,0.822,0.664,1.316c0.137,0.499,0.205,1.019,0.205,1.565v0.68h-5.189v0.122
			c0,0.528,0.146,0.948,0.432,1.257c0.287,0.311,0.74,0.466,1.354,0.466c0.475,0,0.859-0.096,1.158-0.282
			c0.297-0.186,0.574-0.415,0.83-0.677l1.141,1.418c-0.357,0.422-0.828,0.751-1.408,0.986c-0.578,0.237-1.238,0.356-1.98,0.356
			H137.371z M137.328,19.183c-0.463,0-0.824,0.153-1.086,0.453c-0.262,0.303-0.393,0.707-0.393,1.211v0.122h2.834v-0.138
			c0-0.493-0.109-0.89-0.332-1.195c-0.221-0.3-0.561-0.453-1.021-0.453H137.328z"/>
		<path d="M142.424,25.776V14.38h2.277v11.396H142.424z"/>
		<path d="M150.23,25.959c-0.615,0-1.164-0.099-1.648-0.302c-0.482-0.2-0.891-0.482-1.227-0.847
			c-0.334-0.362-0.582-0.809-0.754-1.33c-0.168-0.524-0.256-1.111-0.256-1.758c0-0.644,0.08-1.213,0.25-1.732
			c0.162-0.52,0.406-0.959,0.73-1.33c0.324-0.37,0.721-0.652,1.193-0.855c0.475-0.198,1.012-0.301,1.617-0.301
			c0.668,0,1.24,0.115,1.719,0.34c0.477,0.226,0.865,0.53,1.17,0.907c0.301,0.382,0.523,0.822,0.664,1.316
			c0.137,0.499,0.207,1.019,0.207,1.565v0.68h-5.189v0.122c0,0.528,0.145,0.948,0.432,1.257c0.287,0.311,0.742,0.466,1.354,0.466
			c0.473,0,0.857-0.096,1.156-0.282c0.297-0.186,0.576-0.415,0.832-0.677l1.139,1.418c-0.357,0.422-0.826,0.751-1.406,0.986
			c-0.58,0.237-1.238,0.356-1.98,0.356H150.23z M150.186,19.183c-0.465,0-0.824,0.153-1.084,0.453
			c-0.264,0.303-0.395,0.707-0.395,1.211v0.122h2.834v-0.138c0-0.493-0.109-0.89-0.33-1.195c-0.223-0.3-0.561-0.453-1.023-0.453
			H150.186z"/>
		<path d="M158.541,25.959c-0.605,0-1.143-0.099-1.615-0.302c-0.475-0.2-0.869-0.482-1.186-0.847
			c-0.318-0.362-0.563-0.809-0.727-1.33c-0.164-0.524-0.248-1.111-0.248-1.758c0-0.644,0.08-1.229,0.248-1.747
			c0.164-0.518,0.404-0.96,0.727-1.331c0.316-0.37,0.711-0.651,1.186-0.846c0.473-0.196,1.01-0.295,1.615-0.295
			c0.822,0,1.508,0.184,2.057,0.555c0.551,0.37,0.943,0.889,1.18,1.555l-1.846,0.802c-0.072-0.309-0.223-0.568-0.447-0.785
			c-0.225-0.219-0.537-0.325-0.938-0.325c-0.463,0-0.814,0.153-1.045,0.454c-0.238,0.303-0.355,0.708-0.355,1.226v1.511
			c0,0.515,0.117,0.92,0.355,1.217c0.236,0.296,0.582,0.445,1.045,0.445c0.412,0,0.734-0.11,0.977-0.333
			c0.24-0.221,0.418-0.51,0.529-0.868l1.771,0.77c-0.268,0.77-0.68,1.335-1.242,1.694c-0.561,0.358-1.238,0.539-2.039,0.539H158.541
			z"/>
		<path d="M166.211,25.959c-0.596,0-1.127-0.099-1.594-0.293c-0.467-0.197-0.863-0.479-1.188-0.848
			c-0.326-0.37-0.572-0.816-0.748-1.338c-0.176-0.524-0.264-1.111-0.264-1.758c0-0.644,0.088-1.23,0.264-1.755
			c0.176-0.521,0.422-0.968,0.748-1.332c0.324-0.361,0.717-0.643,1.188-0.837c0.463-0.196,0.998-0.295,1.594-0.295
			c0.594,0,1.125,0.099,1.594,0.295c0.467,0.194,0.863,0.471,1.186,0.837c0.324,0.366,0.574,0.811,0.75,1.332
			c0.176,0.524,0.262,1.111,0.262,1.755c0,0.646-0.086,1.233-0.262,1.758c-0.176,0.521-0.426,0.968-0.75,1.338
			c-0.322,0.368-0.715,0.65-1.186,0.848C167.34,25.86,166.805,25.959,166.211,25.959z M166.211,24.157
			c0.449,0,0.799-0.139,1.049-0.415c0.246-0.28,0.371-0.671,0.371-1.188v-1.646c0-0.517-0.125-0.907-0.371-1.188
			c-0.25-0.277-0.596-0.415-1.049-0.415s-0.803,0.138-1.045,0.415c-0.248,0.28-0.371,0.671-0.371,1.188v1.646
			c0,0.518,0.123,0.908,0.371,1.188C165.414,24.019,165.76,24.157,166.211,24.157z"/>
		<path d="M171.383,25.776v-8.084h2.277v1.368h0.092c0.146-0.432,0.391-0.797,0.742-1.103c0.346-0.303,0.826-0.454,1.43-0.454
			c0.553,0,1.027,0.138,1.416,0.416s0.672,0.683,0.846,1.217h0.047c0.072-0.225,0.182-0.438,0.332-0.636
			c0.148-0.199,0.332-0.375,0.545-0.516c0.217-0.144,0.457-0.26,0.725-0.348s0.553-0.131,0.861-0.131
			c0.779,0,1.377,0.28,1.795,0.833c0.416,0.554,0.621,1.342,0.621,2.374v5.064h-2.277V20.9c0-1.027-0.371-1.542-1.111-1.542
			c-0.338,0-0.646,0.1-0.922,0.294c-0.279,0.194-0.416,0.491-0.416,0.892v5.234h-2.277V20.9c0-1.027-0.371-1.542-1.111-1.542
			c-0.164,0-0.324,0.022-0.482,0.067c-0.162,0.045-0.303,0.122-0.434,0.223c-0.129,0.103-0.23,0.229-0.309,0.376
			c-0.076,0.149-0.113,0.323-0.113,0.518v5.234h-2.279H171.383z"/>
	</g>
</g>
</svg>
